<?xml version="1.0" encoding="UTF-8" standalone="no"?>
<svg width="100px" height="100px" viewBox="0 0 100 100" version="1.1" xmlns="http://www.w3.org/2000/svg" xmlns:xlink="http://www.w3.org/1999/xlink">
    <!-- Generator: Sketch Beta 39 (31652) - http://www.bohemiancoding.com/sketch -->
    <title>Artboard</title>
    <desc>Created with Sketch Beta.</desc>
    <defs></defs>
    <g id="Page-1" stroke="none" stroke-width="1" fill="none" fill-rule="evenodd">
        <g id="Artboard" fill="#3B3D41">
            <g id="Group" transform="translate(5.000000, 10.000000)">
                <path d="M84.9599967,78.479997 L3.95999985,78.479997 L3.77999985,78.479997 C2.15999992,78.299997 0.719999972,77.039997 0.359999986,75.4199971 C0.359999986,75.2399971 0.359999986,75.0599971 0.179999993,74.8799971 L0.179999993,74.1599971 C0.359999986,73.6199972 0.539999979,72.8999972 0.899999965,72.3599972 C13.1399995,51.299998 25.199999,30.2399988 37.4399986,9.17999965 C38.6999985,7.01999973 39.7799985,5.03999981 41.0399984,2.87999989 C41.5799984,1.97999992 42.2999984,1.43999994 43.1999983,1.07999996 C43.5599983,0.899999965 43.9199983,0.899999965 44.2799983,0.899999965 L44.6399983,0.899999965 L44.8199983,0.899999965 C46.2599982,1.07999996 47.3399982,1.79999993 48.0599981,3.05999988 C58.1399978,20.5199992 68.2199974,37.7999985 78.119997,55.2599979 C81.3599969,61.0199976 84.7799967,66.7799974 88.0199966,72.5399972 C88.1999966,72.8999972 88.3799966,73.2599972 88.5599966,73.7999972 C88.5599966,73.9799971 88.5599966,74.1599971 88.7399966,74.3399971 L88.7399966,74.6999971 L88.7399966,74.8799971 C88.5599966,76.4999971 87.4799966,77.759997 86.0399967,78.299997 C85.6799967,78.299997 85.3199967,78.479997 84.9599967,78.479997 L84.9599967,78.479997 Z M11.3399996,70.5599973 L77.939997,70.5599973 C66.7799974,51.299998 55.7999978,32.0399988 44.6399983,12.7799995 C33.4799987,32.0399988 22.3199991,51.299998 11.3399996,70.5599973 L11.3399996,70.5599973 Z" id="Shape"></path>
                <path d="M48.5999981,39.4199985 L48.5999981,48.4199981 C48.5999981,50.2199981 47.3399982,51.839998 45.5399982,52.199998 C43.0199983,52.739998 40.6799984,50.939998 40.6799984,48.2399981 L40.6799984,30.5999988 C40.6799984,30.2399988 40.6799984,29.8799988 40.8599984,29.5199989 C41.3999984,27.7199989 43.0199983,26.459999 44.9999983,26.639999 C46.9799982,26.819999 48.4199981,28.2599989 48.7799981,30.0599988 L48.7799981,30.7799988 C48.5999981,33.6599987 48.5999981,36.5399986 48.5999981,39.4199985 L48.5999981,39.4199985 L48.5999981,39.4199985 Z" id="Shape"></path>
                <path d="M44.6399983,55.7999978 C47.3399982,55.7999978 49.6799981,57.9599978 49.6799981,60.8399977 C49.6799981,63.5399976 47.5199982,65.8799975 44.6399983,65.8799975 C41.9399984,65.8799975 39.5999985,63.5399976 39.5999985,60.8399977 C39.5999985,57.9599978 41.7599984,55.7999978 44.6399983,55.7999978 L44.6399983,55.7999978 Z" id="Shape"></path>
            </g>
        </g>
    </g>
</svg>