<?xml version="1.0" encoding="utf-8"?>
<!-- Generator: Adobe Illustrator 22.0.0, SVG Export Plug-In . SVG Version: 6.00 Build 0)  -->
<svg version="1.1" id="Layer_1" xmlns="http://www.w3.org/2000/svg" xmlns:xlink="http://www.w3.org/1999/xlink" x="0px" y="0px"
	 viewBox="0 0 24 24" style="enable-background:new 0 0 24 24;" xml:space="preserve">
<style type="text/css">
	.st0{fill:#383B40;}
</style>
<g>
	<path class="st0" d="M14.4,1.6H0.9C0.4,1.6,0,2,0,2.5v19.1c0,0.5,0.4,0.9,0.9,0.9h13.5c0.5,0,0.9-0.4,0.9-0.9V2.5
		C15.2,2,14.9,1.6,14.4,1.6z M13.3,20.5H2v-17h11.3V20.5z"/>
	<g>
		<path class="st0" d="M3.8,9h4.3c0.5,0,0.9-0.4,0.9-0.9c0-0.5-0.4-0.9-0.9-0.9H3.8c-0.5,0-0.9,0.4-0.9,0.9C2.9,8.6,3.3,9,3.8,9z"/>
		<path class="st0" d="M10.6,9h0.9c0.5,0,0.9-0.4,0.9-0.9c0-0.5-0.4-0.9-0.9-0.9h-0.9c-0.5,0-0.9,0.4-0.9,0.9C9.8,8.6,10.2,9,10.6,9
			z"/>
		<path class="st0" d="M3.8,11.6h4.3c0.5,0,0.9-0.4,0.9-0.9c0-0.5-0.4-0.9-0.9-0.9H3.8c-0.5,0-0.9,0.4-0.9,0.9
			C2.9,11.2,3.3,11.6,3.8,11.6z"/>
		<path class="st0" d="M10.6,11.6h0.9c0.5,0,0.9-0.4,0.9-0.9c0-0.5-0.4-0.9-0.9-0.9h-0.9c-0.5,0-0.9,0.4-0.9,0.9
			C9.8,11.2,10.2,11.6,10.6,11.6z"/>
		<path class="st0" d="M3.8,14.2h7.7c0.5,0,0.9-0.4,0.9-0.9c0-0.5-0.4-0.9-0.9-0.9H3.8c-0.5,0-0.9,0.4-0.9,0.9
			C2.9,13.8,3.3,14.2,3.8,14.2z"/>
		<path class="st0" d="M3.8,16.8h4.3c0.5,0,0.9-0.4,0.9-0.9s-0.4-0.9-0.9-0.9H3.8c-0.5,0-0.9,0.4-0.9,0.9S3.3,16.8,3.8,16.8z"/>
		<path class="st0" d="M11.5,15.1h-0.9c-0.5,0-0.9,0.4-0.9,0.9s0.4,0.9,0.9,0.9h0.9c0.5,0,0.9-0.4,0.9-0.9S12,15.1,11.5,15.1z"/>
	</g>
	<path class="st0" d="M24,11.1c0-1.9-1.5-3.5-3.4-3.5c-1.9,0-3.4,1.6-3.4,3.5c0,1.6,1.1,3,2.6,3.4v4.4c0,0.5,0.4,0.9,0.9,0.9
		c0.5,0,0.9-0.4,0.9-0.9v-4.4C22.9,14.1,24,12.7,24,11.1z M20.6,12.9c-0.9,0-1.7-0.8-1.7-1.7s0.8-1.7,1.7-1.7c0.9,0,1.7,0.8,1.7,1.7
		S21.5,12.9,20.6,12.9z"/>
</g>
</svg>
