<?xml version="1.0" encoding="utf-8"?>
<!-- Generator: Adobe Illustrator 22.0.0, SVG Export Plug-In . SVG Version: 6.00 Build 0)  -->
<svg version="1.1" id="Layer_1" xmlns="http://www.w3.org/2000/svg" xmlns:xlink="http://www.w3.org/1999/xlink" x="0px" y="0px"
	 viewBox="0 0 24 24" style="enable-background:new 0 0 24 24;" xml:space="preserve">
<style type="text/css">
	.st0{fill:#393B40;}
</style>
<g>
	<g>
		<path class="st0" d="M3.9,3.3c0.4,0,0.7,0.3,0.7,0.7c0,0.4-0.3,0.7-0.7,0.7S3.2,4.4,3.2,4C3.2,3.6,3.5,3.3,3.9,3.3z"/>
		<path class="st0" d="M20.1,3.3c0.4,0,0.7,0.3,0.7,0.7c0,0.4-0.3,0.7-0.7,0.7c-0.4,0-0.7-0.3-0.7-0.7C19.4,3.6,19.7,3.3,20.1,3.3z"
			/>
		<path class="st0" d="M3.9,19.3c0.4,0,0.7,0.3,0.7,0.7s-0.3,0.7-0.7,0.7S3.2,20.4,3.2,20S3.5,19.3,3.9,19.3z"/>
		<path class="st0" d="M20.1,19.3c0.4,0,0.7,0.3,0.7,0.7s-0.3,0.7-0.7,0.7c-0.4,0-0.7-0.3-0.7-0.7S19.7,19.3,20.1,19.3z"/>
		<path class="st0" d="M11.2,12l-0.5,3.4h2.7L12.8,12c0.6-0.3,1-0.9,1-1.6c0-1-0.8-1.8-1.8-1.8c-1,0-1.8,0.8-1.8,1.8
			C10.2,11.1,10.6,11.7,11.2,12z"/>
		<path class="st0" d="M5.3,7.4C4.4,8.7,3.8,10.3,3.8,12c0,1.6,0.5,3.2,1.3,4.4l-0.1,0.1c-0.5,0.5-0.5,1.4,0,1.9l0.4,0.4
			c0.5,0.5,1.4,0.5,1.9,0l0.1-0.1c1.3,0.9,2.8,1.3,4.5,1.3c1.7,0,3.3-0.5,4.6-1.4l0.1,0.1c0.5,0.5,1.4,0.5,1.9,0l0.4-0.4
			c0.5-0.5,0.5-1.4,0-1.9l-0.2-0.2c0.8-1.3,1.3-2.8,1.3-4.4c0-1.7-0.5-3.2-1.3-4.5L19,7.3c0.5-0.5,0.5-1.4,0-1.9l-0.4-0.4
			c-0.5-0.5-1.4-0.5-1.9,0l-0.2,0.2c-1.3-0.8-2.8-1.3-4.4-1.3c-1.6,0-3.1,0.5-4.4,1.3L7.5,4.9c-0.5-0.5-1.4-0.5-1.9,0L5.1,5.4
			c-0.5,0.5-0.5,1.4,0,1.9L5.3,7.4z M17.7,12c0,3.1-2.5,5.7-5.7,5.7S6.3,15.1,6.3,12c0-3.1,2.5-5.7,5.7-5.7
			C15.1,6.3,17.7,8.9,17.7,12z"/>
	</g>
	<path class="st0" d="M24,1.3C24,0.6,23.4,0,22.7,0h-7.4v0h-14C0.6,0,0,0.6,0,1.3v7.4h0v14C0,23.4,0.6,24,1.3,24h14v0h7.4
		c0.7,0,1.3-0.6,1.3-1.3v-14h0V1.3z M21.4,21.4h-5v0H2.6V7.6h0v-5h13.1v0h5.7V8h0V21.4z"/>
</g>
</svg>
