<?xml version="1.0" encoding="UTF-8" standalone="no"?>
<svg width="100px" height="100px" viewBox="0 0 100 100" version="1.1" xmlns="http://www.w3.org/2000/svg" xmlns:xlink="http://www.w3.org/1999/xlink">
    <!-- Generator: Sketch Beta 39 (31652) - http://www.bohemiancoding.com/sketch -->
    <title>Artboard</title>
    <desc>Created with Sketch Beta.</desc>
    <defs></defs>
    <g id="Page-1" stroke="none" stroke-width="1" fill="none" fill-rule="evenodd">
        <g id="Artboard" fill="#3B3D41">
            <path d="M93.0426093,86.4817418 L66.5874983,60.0266308 C71.031957,54.3123268 73.5716476,47.1165367 73.5716476,39.2858238 C73.5716476,20.2381439 58.1218628,5 39.2858238,5 C20.2381439,5 5,20.4497848 5,39.2858238 C5,58.3335037 20.4497848,73.5716476 39.2858238,73.5716476 C47.1165367,73.5716476 54.100686,71.031957 60.0266308,66.5874983 L86.4817418,93.0426093 C88.8097915,95.3706591 91.9844049,95.5823 93.8891729,93.677532 C95.5823,92.1960458 95.3706591,88.8097915 93.0426093,86.4817418 L93.0426093,86.4817418 Z M39.0741829,65.1060121 C24.8942434,65.1060121 13.2539946,53.4657633 13.2539946,39.2858238 C13.2539946,25.1058843 24.8942434,13.4656355 39.0741829,13.4656355 C53.2541224,13.4656355 64.8943712,25.1058843 64.8943712,39.2858238 C64.8943712,53.6774042 53.4657633,65.1060121 39.0741829,65.1060121 L39.0741829,65.1060121 Z" id="Shape"></path>
        </g>
    </g>
</svg>