<?xml version="1.0" encoding="utf-8"?>
<!-- Generator: Adobe Illustrator 22.0.0, SVG Export Plug-In . SVG Version: 6.00 Build 0)  -->
<svg version="1.1" id="Layer_1" xmlns="http://www.w3.org/2000/svg" xmlns:xlink="http://www.w3.org/1999/xlink" x="0px" y="0px"
	 viewBox="0 0 24 24" style="enable-background:new 0 0 24 24;" xml:space="preserve">
<style type="text/css">
	.st0{fill:#393B40;}
</style>
<g>
	<path class="st0" d="M22.9,6.6H1.1C0.5,6.6,0,7.1,0,7.7v8.6c0,0.6,0.5,1.1,1.1,1.1h21.8c0.6,0,1.1-0.5,1.1-1.1V7.7
		C24,7.1,23.5,6.6,22.9,6.6z M2.2,15.2V8.8h19.6v6.5H2.2z"/>
	<g>
		<path class="st0" d="M19.1,11.6h-0.9l0.5-0.8c0.1-0.2,0-0.4-0.1-0.5c-0.2-0.1-0.4,0-0.5,0.1l-0.5,0.8l-0.5-0.8
			c-0.1-0.2-0.4-0.3-0.5-0.1c-0.2,0.1-0.3,0.4-0.1,0.5l0.5,0.8h-0.9c-0.2,0-0.4,0.2-0.4,0.4s0.2,0.4,0.4,0.4h0.9l-0.5,0.8
			c-0.1,0.2,0,0.4,0.1,0.5c0.2,0.1,0.4,0,0.5-0.1l0.5-0.8l0.5,0.8c0.1,0.2,0.4,0.3,0.5,0.1s0.3-0.4,0.1-0.5l-0.5-0.8h0.9
			c0.2,0,0.4-0.2,0.4-0.4C19.5,11.8,19.3,11.6,19.1,11.6z M13.6,11.6h-0.9l0.5-0.8c0.1-0.2,0-0.4-0.1-0.5c-0.2-0.1-0.4,0-0.5,0.1
			l-0.5,0.8l-0.5-0.8c-0.1-0.2-0.4-0.3-0.5-0.1c-0.2,0.1-0.3,0.4-0.1,0.5l0.5,0.8h-0.9c-0.2,0-0.4,0.2-0.4,0.4s0.2,0.4,0.4,0.4h0.9
			l-0.5,0.8c-0.1,0.2,0,0.4,0.1,0.5c0.2,0.1,0.4,0,0.5-0.1l0.5-0.8l0.5,0.8c0.1,0.2,0.4,0.3,0.5,0.1c0.2-0.1,0.3-0.4,0.1-0.5
			l-0.5-0.8h0.9c0.2,0,0.4-0.2,0.4-0.4C14,11.8,13.8,11.6,13.6,11.6z M8.2,11.6H7.3l0.5-0.8c0.1-0.2,0-0.4-0.1-0.5
			c-0.2-0.1-0.4,0-0.5,0.1l-0.5,0.8l-0.5-0.8c-0.1-0.2-0.4-0.2-0.6-0.1l0,0c-0.2,0.1-0.3,0.4-0.1,0.6l0.5,0.8H4.9
			c-0.2,0-0.4,0.2-0.4,0.4c0,0.2,0.2,0.4,0.4,0.4h0.9l-0.5,0.8c-0.1,0.2,0,0.4,0.1,0.5l0,0c0.2,0.1,0.4,0,0.5-0.1l0.5-0.8l0.5,0.8
			c0.1,0.2,0.4,0.3,0.5,0.1c0.2-0.1,0.3-0.4,0.1-0.5l-0.5-0.8h0.9c0.2,0,0.4-0.2,0.4-0.4C8.6,11.8,8.4,11.6,8.2,11.6z"/>
	</g>
</g>
</svg>
