<?xml version="1.0" encoding="UTF-8" standalone="no"?>
<svg width="100px" height="100px" viewBox="0 0 100 100" version="1.1" xmlns="http://www.w3.org/2000/svg" xmlns:xlink="http://www.w3.org/1999/xlink">
    <!-- Generator: Sketch Beta 39 (31652) - http://www.bohemiancoding.com/sketch -->
    <title>Artboard</title>
    <desc>Created with Sketch Beta.</desc>
    <defs></defs>
    <g id="Page-1" stroke="none" stroke-width="1" fill="none" fill-rule="evenodd">
        <g id="Artboard" fill="#3B3D41">
            <path d="M89.3488372,55.8604651 L86,55.8604651 C85.1627907,61.7209302 82.8604651,67.1627907 79.5116279,71.7674419 L82.0232558,74.2790698 C83.0697674,75.3255814 83.6976744,76.7906977 83.6976744,78.255814 C83.6976744,79.7209302 83.0697674,81.1860465 82.0232558,82.2325581 C80.9767442,83.2790698 79.5116279,83.9069767 78.0465116,83.9069767 C76.5813953,83.9069767 75.1162791,83.2790698 74.0697674,82.2325581 L71.5581395,79.7209302 C66.9534884,83.0697674 61.5116279,85.372093 55.6511628,86.4186047 L55.6511628,89.7674419 C55.6511628,92.9069767 53.1395349,95.4186047 50,95.4186047 C46.8604651,95.4186047 44.3488372,92.9069767 44.3488372,89.7674419 L44.3488372,86.4186047 C38.4883721,85.5813953 33.0465116,83.2790698 28.4418605,79.7209302 L25.9302326,82.2325581 C24.8837209,83.2790698 23.4186047,83.9069767 21.9534884,83.9069767 C20.4883721,83.9069767 19.0232558,83.2790698 17.9767442,82.2325581 C16.9302326,81.1860465 16.3023256,79.7209302 16.3023256,78.255814 C16.3023256,76.7906977 16.9302326,75.3255814 17.9767442,74.2790698 L20.4883721,71.7674419 C17.1395349,67.1627907 14.8372093,61.7209302 14,55.8604651 L10.6511628,55.8604651 C7.51162791,55.8604651 5,53.3488372 5,50.2093023 C5,47.0697674 7.51162791,44.5581395 10.6511628,44.5581395 L14,44.5581395 C14.8372093,38.6976744 17.1395349,33.255814 20.4883721,28.6511628 L17.9767442,26.1395349 C16.9302326,25.0930233 16.3023256,23.627907 16.3023256,22.1627907 C16.3023256,20.6976744 16.9302326,19.2325581 17.9767442,18.1860465 C19.0232558,17.1395349 20.4883721,16.5116279 21.9534884,16.5116279 C23.4186047,16.5116279 24.8837209,17.1395349 25.9302326,18.1860465 L28.4418605,20.6976744 C33.0465116,17.3488372 38.4883721,15.0465116 44.3488372,14 L44.3488372,10.6511628 C44.3488372,7.51162791 46.8604651,5 50,5 C53.1395349,5 55.6511628,7.51162791 55.6511628,10.6511628 L55.6511628,14 C61.5116279,14.8372093 66.9534884,17.1395349 71.5581395,20.6976744 L74.0697674,18.1860465 C75.1162791,17.1395349 76.5813953,16.5116279 78.0465116,16.5116279 C79.5116279,16.5116279 80.9767442,17.1395349 82.0232558,18.1860465 C83.0697674,19.2325581 83.6976744,20.6976744 83.6976744,22.1627907 C83.6976744,23.627907 83.0697674,25.0930233 82.0232558,26.1395349 L79.5116279,28.6511628 C82.8604651,33.255814 85.1627907,38.6976744 86,44.5581395 L89.3488372,44.5581395 C92.4883721,44.5581395 95,47.0697674 95,50.2093023 C95,53.3488372 92.4883721,55.8604651 89.3488372,55.8604651 L89.3488372,55.8604651 Z M50,21.9534884 C34.5116279,21.9534884 21.9534884,34.5116279 21.9534884,50.2093023 C21.9534884,65.6976744 34.5116279,78.4651163 50,78.4651163 C65.4883721,78.4651163 78.0465116,65.9069767 78.0465116,50.2093023 C78.0465116,34.7209302 65.4883721,21.9534884 50,21.9534884 L50,21.9534884 Z M50,67.1627907 C40.5813953,67.1627907 33.0465116,59.627907 33.0465116,50.2093023 C33.0465116,40.7906977 40.5813953,33.255814 50,33.255814 C59.4186047,33.255814 66.9534884,40.7906977 66.9534884,50.2093023 C66.9534884,59.627907 59.2093023,67.1627907 50,67.1627907 L50,67.1627907 Z M50,41.8372093 C45.3953488,41.8372093 41.627907,45.6046512 41.627907,50.2093023 C41.627907,54.8139535 45.3953488,58.5813953 50,58.5813953 C54.6046512,58.5813953 58.372093,54.8139535 58.372093,50.2093023 C58.372093,45.6046512 54.6046512,41.8372093 50,41.8372093 L50,41.8372093 Z" id="Shape"></path>
        </g>
    </g>
</svg>