<?xml version="1.0" encoding="utf-8"?>
<!-- Generator: Adobe Illustrator 22.0.0, SVG Export Plug-In . SVG Version: 6.00 Build 0)  -->
<svg version="1.1" id="Layer_1" xmlns="http://www.w3.org/2000/svg" xmlns:xlink="http://www.w3.org/1999/xlink" x="0px" y="0px"
	 viewBox="0 0 24 24" style="enable-background:new 0 0 24 24;" xml:space="preserve">
<style type="text/css">
	.st0{fill:#383B40;}
</style>
<g>
	<path class="st0" d="M21.4,6.2h-7.2V4.9c0-1.2-1-2.3-2.3-2.3s-2.3,1-2.3,2.3v1.3H2.6C1.2,6.2,0,7.3,0,8.7v10.2
		c0,1.4,1.1,2.5,2.5,2.5h18.9c1.4,0,2.5-1.1,2.5-2.5V8.7C24,7.3,22.8,6.2,21.4,6.2z M11.7,4.9c0-0.2,0.1-0.3,0.3-0.3
		s0.3,0.1,0.3,0.3v3.1c0,0.2-0.1,0.3-0.3,0.3s-0.3-0.1-0.3-0.3V4.9z M22,18.9c0,0.3-0.2,0.6-0.6,0.6H2.6c-0.3,0-0.6-0.2-0.6-0.6V8.7
		c0-0.2,0.1-0.3,0.2-0.4c0.1-0.1,0.2-0.2,0.4-0.2h0h7.2c0.1,1.1,1.1,2,2.2,2c1.2,0,2.1-0.9,2.2-2h7.2c0.3,0,0.6,0.2,0.6,0.6V18.9z"
		/>
	<path class="st0" d="M6.9,13.8c1.1,0,1.9-0.9,1.9-1.9c0-1.1-0.9-1.9-1.9-1.9S5,10.8,5,11.9C5,12.9,5.8,13.8,6.9,13.8z M6.9,11.2
		c0.4,0,0.7,0.3,0.7,0.7c0,0.4-0.3,0.7-0.7,0.7c-0.4,0-0.7-0.3-0.7-0.7C6.2,11.5,6.5,11.2,6.9,11.2z"/>
	<path class="st0" d="M20.5,16.3h-7.6c-0.3,0-0.6,0.3-0.6,0.6c0,0.3,0.3,0.6,0.6,0.6h7.6c0.3,0,0.6-0.3,0.6-0.6
		C21.1,16.5,20.9,16.3,20.5,16.3z"/>
	<path class="st0" d="M20.5,10.5h-7.6c-0.3,0-0.6,0.3-0.6,0.6c0,0.3,0.3,0.6,0.6,0.6h7.6c0.3,0,0.6-0.3,0.6-0.6
		C21.1,10.8,20.9,10.5,20.5,10.5z"/>
	<path class="st0" d="M20.5,13.4h-7.6c-0.3,0-0.6,0.3-0.6,0.6c0,0.3,0.3,0.6,0.6,0.6h7.6c0.3,0,0.6-0.3,0.6-0.6
		C21.1,13.7,20.9,13.4,20.5,13.4z"/>
	<path class="st0" d="M9.6,14.9c-0.7-0.5-1.7-0.7-2.7-0.7c-1,0-2,0.3-2.7,0.7c-0.8,0.5-1.3,1.3-1.3,2v0.4c0,0.3,0.3,0.6,0.6,0.6h6.8
		c0.3,0,0.6-0.3,0.6-0.6V17C10.9,16.2,10.4,15.4,9.6,14.9z M4.1,16.8c0.1-0.3,0.3-0.6,0.7-0.9c0.5-0.4,1.3-0.6,2.1-0.6
		s1.6,0.2,2.1,0.6c0.4,0.3,0.6,0.6,0.7,0.9H4.1z"/>
</g>
</svg>
