<?xml version="1.0" encoding="UTF-8" standalone="no"?>
<svg width="100px" height="100px" viewBox="0 0 100 100" version="1.1" xmlns="http://www.w3.org/2000/svg" xmlns:xlink="http://www.w3.org/1999/xlink">
    <!-- Generator: Sketch Beta 39 (31652) - http://www.bohemiancoding.com/sketch -->
    <title>Artboard</title>
    <desc>Created with Sketch Beta.</desc>
    <defs></defs>
    <g id="Page-1" stroke="none" stroke-width="1" fill="none" fill-rule="evenodd">
        <g id="Artboard" fill="#3B3D41">
            <g id="Group" transform="translate(5.000000, 5.000000)">
                <path d="M45.2045455,88.7727273 C21.0681818,88.7727273 1.22727273,69.1363636 1.22727273,44.7954545 C1.22727273,20.4545455 20.8636364,0.818181818 45.2045455,0.818181818 C69.5454545,0.818181818 89.1818182,20.4545455 89.1818182,44.7954545 C89.1818182,69.1363636 69.3409091,88.7727273 45.2045455,88.7727273 L45.2045455,88.7727273 Z M45.2045455,9.20454545 C25.5681818,9.20454545 9.40909091,25.1590909 9.40909091,45 C9.40909091,64.8409091 25.3636364,80.7954545 45.2045455,80.7954545 C65.0454545,80.7954545 81,64.8409091 81,45 C81,25.1590909 64.8409091,9.20454545 45.2045455,9.20454545 L45.2045455,9.20454545 Z" id="Shape"></path>
                <path d="M61.9772727,17.1818182 C56.8636364,14.3181818 50.7272727,12.6818182 44.7954545,12.6818182 C28.8409091,12.6818182 12.8863636,24.1363636 11.8636364,40.9090909 C11.6590909,42.5454545 12.8863636,44.1818182 14.5227273,44.1818182 C16.1590909,44.3863636 17.5909091,42.75 17.5909091,41.3181818 C17.7954545,39.2727273 18.2045455,37.4318182 18.8181818,35.5909091 L21.0681818,37.0227273 L23.9318182,31.9090909 L21.4772727,30.4772727 C23.3181818,27.8181818 25.7727273,25.5681818 28.4318182,23.7272727 L30.0681818,26.7954545 L34.9772727,23.9318182 L33.5454545,21.2727273 C36.4090909,20.0454545 39.4772727,19.2272727 42.5454545,19.0227273 L42.5454545,22.0909091 L48.2727273,22.0909091 L48.2727273,19.2272727 C51.3409091,19.6363636 54.2045455,20.4545455 57.0681818,21.6818182 L55.6363636,24.1363636 L60.5454545,27 L61.9772727,24.5454545 C64.6363636,26.3863636 66.8863636,28.6363636 68.5227273,31.0909091 L66.0681818,32.7272727 L68.9318182,37.8409091 L71.3863636,36.4090909 C72,38.0454545 72.4090909,39.8863636 72.4090909,41.7272727 C72.4090909,43.3636364 73.8409091,44.7954545 75.4772727,44.5909091 C76.9090909,44.3863636 78.3409091,42.9545455 78.1363636,41.3181818 C77.1136364,30.4772727 70.7727273,22.0909091 61.9772727,17.1818182 L61.9772727,17.1818182 L61.9772727,17.1818182 Z M45.6136364,25.9772727 C43.9772727,25.9772727 42.5454545,27.4090909 42.5454545,28.8409091 L42.1363636,42.9545455 C38.6590909,44.1818182 36.2045455,47.25 36,51.1363636 C35.7954545,56.0454545 39.6818182,60.1363636 44.5909091,60.1363636 C49.5,60.3409091 53.5909091,56.4545455 53.5909091,51.5454545 C53.5909091,47.6590909 51.3409091,44.3863636 47.8636364,43.1590909 L48.2727273,29.0454545 C48.6818182,27.6136364 47.25,25.9772727 45.6136364,25.9772727 L45.6136364,25.9772727 L45.6136364,25.9772727 Z" id="Shape"></path>
            </g>
        </g>
    </g>
</svg>