<?xml version="1.0" encoding="utf-8"?>
<!-- Generator: Adobe Illustrator 22.0.0, SVG Export Plug-In . SVG Version: 6.00 Build 0)  -->
<svg version="1.1" id="Layer_1" xmlns="http://www.w3.org/2000/svg" xmlns:xlink="http://www.w3.org/1999/xlink" x="0px" y="0px"
	 viewBox="0 0 24 24" style="enable-background:new 0 0 24 24;" xml:space="preserve">
<style type="text/css">
	.st0{fill:url(#SVGID_1_);}
</style>
<linearGradient id="SVGID_1_" gradientUnits="userSpaceOnUse" x1="0" y1="11.9903" x2="23.9806" y2="11.9903">
	<stop  offset="0" style="stop-color:#592C7E"/>
	<stop  offset="1" style="stop-color:#EF414A"/>
</linearGradient>
<path class="st0" d="M21.3,0H2.7C1.2,0,0,1.2,0,2.7v18.7C0,22.8,1.2,24,2.7,24h18.7c1.5,0,2.7-1.2,2.7-2.7V2.7C24,1.2,22.8,0,21.3,0
	z M17.1,15.3l0.2,0.2l0,0c0.1,0.1,0.2,0.2,0.2,0.2c0.1,0.1,0.2,0.2,0.2,0.3c0.3,0.5,0.2,1.2-0.3,1.6C17,18,16.3,18,15.8,17.6
	c-0.1,0-0.1-0.1-0.2-0.2c0,0-0.1-0.1-0.2-0.2l0,0L12,13.8c-1.3,1.3-2.6,2.6-3.3,3.3l-0.2,0.2l0,0c-0.1,0.1-0.2,0.2-0.2,0.2
	c-0.1,0.1-0.2,0.2-0.3,0.2c-0.5,0.3-1.2,0.2-1.6-0.3C6,17,6,16.3,6.4,15.8c0-0.1,0.1-0.1,0.2-0.2c0,0,0.1-0.1,0.2-0.2l0,0l3.4-3.4
	L6.6,8.4l0,0c0,0,0,0-0.1-0.1C6.1,7.9,6,7.2,6.3,6.7c0.4-0.7,1.4-0.8,2-0.2c0.6,0.6,2,2,3.6,3.6l3.6-3.6l0,0c0,0,0,0,0.1-0.1
	c0.4-0.4,1.1-0.5,1.6-0.2c0.7,0.4,0.8,1.4,0.2,2c-0.6,0.6-2,2-3.6,3.6C15.2,13.3,16.4,14.6,17.1,15.3z"/>
</svg>
