<?xml version="1.0" encoding="UTF-8" standalone="no"?>
<svg width="100px" height="100px" viewBox="0 0 100 100" version="1.1" xmlns="http://www.w3.org/2000/svg" xmlns:xlink="http://www.w3.org/1999/xlink">
    <!-- Generator: Sketch Beta 39 (31652) - http://www.bohemiancoding.com/sketch -->
    <title>Artboard</title>
    <desc>Created with Sketch Beta.</desc>
    <defs></defs>
    <g id="Page-1" stroke="none" stroke-width="1" fill="none" fill-rule="evenodd">
        <g id="Artboard" fill="#3B3D41">
            <path d="M47.3317141,18.4663428 L38.8653713,10 L10.7055789,10 C7.57671303,10 5,12.576713 5,15.7055789 L5,83.8044233 C5,86.9332891 7.57671303,89.5100021 10.7055789,89.5100021 L89.2953263,89.5100021 C92.4241922,89.5100021 95.0009052,86.9332891 95.0009052,83.8044233 L95.0009052,24.3559726 C95.0009052,21.2271068 92.4241922,18.6503938 89.2953263,18.6503938 L47.3317141,18.6503938 L47.3317141,18.4663428 Z M35.5524545,18.4663428 L44.0187973,26.9326856 L86.9026642,26.9326856 L86.9026642,32.6382645 L13.8344447,32.6382645 L13.8344447,18.4663428 L35.5524545,18.4663428 L35.5524545,18.4663428 Z M13.6503938,80.8596084 L13.6503938,41.1046073 L86.7186133,41.1046073 L86.7186133,80.8596084 L13.6503938,80.8596084 L13.6503938,80.8596084 Z" id="Shape"></path>
        </g>
    </g>
</svg>