<?xml version="1.0" encoding="utf-8"?>
<!-- Generator: Adobe Illustrator 22.0.0, SVG Export Plug-In . SVG Version: 6.00 Build 0)  -->
<svg version="1.1" id="Layer_1" xmlns="http://www.w3.org/2000/svg" xmlns:xlink="http://www.w3.org/1999/xlink" x="0px" y="0px"
	 viewBox="0 0 24 24" style="enable-background:new 0 0 24 24;" xml:space="preserve">
<style type="text/css">
	.st0{fill:#393B40;}
</style>
<g>
	<path class="st0" d="M19.7,0.1H4.3c-0.5,0-1,0.4-1,1v21.9c0,0.5,0.4,1,1,1h15.5c0.5,0,1-0.4,1-1V1.1C20.7,0.5,20.3,0.1,19.7,0.1z
		 M18.4,21.8H5.5V2.2h12.9V21.8z"/>
	<g>
		<path class="st0" d="M13.2,6.4v-3c0-0.1,0.1-0.1,0.1-0.1c1.4,0.4,2.6,1.6,2.8,3.1c0,0.1,0,0.1-0.1,0.1h-2.7
			C13.2,6.5,13.2,6.5,13.2,6.4z"/>
		<path class="st0" d="M7.9,8c-0.2-2.2,1.5-4.1,3.6-4.1c0.1,0,0.1,0,0.1,0.1v3.9c0,0.1,0,0.1,0.1,0.1h3.5c0.1,0,0.1,0.1,0.1,0.1
			c-0.3,1.9-2,3.3-4.1,3.2C9.6,11.1,8.1,9.7,7.9,8z"/>
	</g>
	<g>
		<g>
			<g>
				<path class="st0" d="M7.6,14.7h8.8c0.5,0,1-0.4,1-1c0-0.5-0.4-1-1-1H7.6c-0.5,0-1,0.4-1,1C6.6,14.3,7.1,14.7,7.6,14.7z"/>
			</g>
		</g>
		<g>
			<g>
				<path class="st0" d="M7.6,17.7h8.8c0.5,0,1-0.4,1-1s-0.4-1-1-1H7.6c-0.5,0-1,0.4-1,1S7.1,17.7,7.6,17.7z"/>
			</g>
		</g>
		<g>
			<g>
				<path class="st0" d="M7.6,20.7h8.8c0.5,0,1-0.4,1-1c0-0.5-0.4-1-1-1H7.6c-0.5,0-1,0.4-1,1C6.6,20.2,7.1,20.7,7.6,20.7z"/>
			</g>
		</g>
	</g>
</g>
</svg>
