<?xml version="1.0" encoding="utf-8"?>
<!-- Generator: Adobe Illustrator 22.0.0, SVG Export Plug-In . SVG Version: 6.00 Build 0)  -->
<svg version="1.1" id="Layer_1" xmlns="http://www.w3.org/2000/svg" xmlns:xlink="http://www.w3.org/1999/xlink" x="0px" y="0px"
	 viewBox="0 0 24 24" style="enable-background:new 0 0 24 24;" xml:space="preserve">
<style type="text/css">
	.st0{fill:#383B40;}
</style>
<g>
	<path class="st0" d="M6.4,4.6h1.5c0.8,0,1.5-0.7,1.5-1.5V1.6c0-0.8-0.7-1.5-1.5-1.5H6.4c-0.8,0-1.5,0.7-1.5,1.5v1.5
		C4.9,3.9,5.6,4.6,6.4,4.6z M6.4,1.6h1.5v1.5H6.4V1.6z"/>
	<path class="st0" d="M15.7,9.8c-0.8,0-1.5,0.7-1.5,1.5v1.5c0,0.8,0.7,1.5,1.5,1.5h1.5c0.8,0,1.5-0.7,1.5-1.5v-1.5
		c0-0.8-0.7-1.5-1.5-1.5H15.7z M17.2,12.8h-1.5v-1.5h1.5V12.8z"/>
	<path class="st0" d="M10.7,19.4H9.2c-0.8,0-1.5,0.7-1.5,1.5v1.5c0,0.8,0.7,1.5,1.5,1.5h1.5c0.8,0,1.5-0.7,1.5-1.5v-1.5
		C12.2,20.1,11.5,19.4,10.7,19.4z M10.7,22.4H9.2v-1.5h1.5V22.4z"/>
	<path class="st0" d="M0.8,1.6h2.6v0h0c0.4,0,0.7-0.3,0.7-0.7c0-0.4-0.3-0.7-0.7-0.7H0.8v0h0c-0.4,0-0.7,0.3-0.7,0.7
		C0.1,1.3,0.4,1.6,0.8,1.6z"/>
	<path class="st0" d="M0.8,4.6L0.8,4.6L0.8,4.6l2.6,0c0.4,0,0.7-0.3,0.7-0.7c0-0.4-0.3-0.7-0.7-0.7h0v0H0.8c-0.4,0-0.7,0.3-0.7,0.7
		C0.1,4.3,0.4,4.6,0.8,4.6z"/>
	<path class="st0" d="M0.1,10.6c0,0.4,0.3,0.7,0.7,0.7h9.3v0h2.6c0.4,0,0.7-0.3,0.7-0.7c0-0.4-0.3-0.7-0.7-0.7h-2.6H0.8
		C0.4,9.8,0.1,10.2,0.1,10.6z"/>
	<path class="st0" d="M23.2,9.8h-0.4h-2.6h0c-0.4,0-0.7,0.3-0.7,0.7c0,0.4,0.3,0.7,0.7,0.7h2.6v0h0.4c0.4,0,0.7-0.3,0.7-0.7
		C23.9,10.2,23.6,9.8,23.2,9.8z"/>
	<path class="st0" d="M23.2,12.8h-3v0h0c-0.4,0-0.7,0.3-0.7,0.7c0,0.4,0.3,0.7,0.7,0.7h2.6v0h0.4c0.4,0,0.7-0.3,0.7-0.7
		C23.9,13.2,23.6,12.8,23.2,12.8z"/>
	<path class="st0" d="M23.2,19.4h-7h-2.6h0c-0.4,0-0.7,0.3-0.7,0.7c0,0.4,0.3,0.7,0.7,0.7h0h2.6h7c0.4,0,0.7-0.3,0.7-0.7
		C23.9,19.7,23.6,19.4,23.2,19.4z"/>
	<path class="st0" d="M23.2,22.4h-9.6v0h0c-0.4,0-0.7,0.3-0.7,0.7c0,0.4,0.3,0.7,0.7,0.7h2.6v0h7c0.4,0,0.7-0.3,0.7-0.7
		C23.9,22.7,23.6,22.4,23.2,22.4z"/>
	<path class="st0" d="M10.9,1.6L10.9,1.6l12.3,0c0.4,0,0.7-0.3,0.7-0.7c0-0.4-0.3-0.7-0.7-0.7h-9.7v0h-2.6c-0.4,0-0.7,0.3-0.7,0.7
		C10.2,1.3,10.5,1.6,10.9,1.6z"/>
	<path class="st0" d="M10.9,4.6h2.6v0h9.7c0.4,0,0.7-0.3,0.7-0.7c0-0.4-0.3-0.7-0.7-0.7H10.9v0c-0.4,0-0.7,0.3-0.7,0.7
		C10.2,4.3,10.5,4.6,10.9,4.6z"/>
	<path class="st0" d="M13.4,13.6c0-0.4-0.3-0.7-0.7-0.7v0H0.8c-0.4,0-0.7,0.3-0.7,0.7c0,0.4,0.3,0.7,0.7,0.7h9.3v0h2.6
		C13.1,14.3,13.4,14,13.4,13.6z"/>
	<path class="st0" d="M6.1,19.4H3.5H0.8c-0.4,0-0.7,0.3-0.7,0.7c0,0.4,0.3,0.7,0.7,0.7h2.7h2.6c0.4,0,0.7-0.3,0.7-0.7
		C6.8,19.7,6.5,19.4,6.1,19.4z"/>
	<path class="st0" d="M6.1,22.4L6.1,22.4l-5.3,0c-0.4,0-0.7,0.3-0.7,0.7c0,0.4,0.3,0.7,0.7,0.7h2.7v0h2.6c0.4,0,0.7-0.3,0.7-0.7
		C6.8,22.7,6.5,22.4,6.1,22.4z"/>
</g>
</svg>
