<?xml version="1.0" encoding="utf-8"?>
<!-- Generator: Adobe Illustrator 22.0.0, SVG Export Plug-In . SVG Version: 6.00 Build 0)  -->
<svg version="1.1" id="Layer_1" xmlns="http://www.w3.org/2000/svg" xmlns:xlink="http://www.w3.org/1999/xlink" x="0px" y="0px"
	 viewBox="0 0 24 24" style="enable-background:new 0 0 24 24;" xml:space="preserve">
<style type="text/css">
	.st0{fill:#393B40;}
</style>
<g>
	<path class="st0" d="M15.9,11.5c0-0.7-0.6-1.2-1.3-1.2h-0.1V9.2c0-1.4-1.1-2.5-2.5-2.5S9.5,7.8,9.5,9.2v1.1H9.4
		c-0.7,0-1.3,0.6-1.3,1.3v3.8c0,0.7,0.6,1.3,1.3,1.3h5.2c0.7,0,1.3-0.6,1.3-1.3L15.9,11.5L15.9,11.5L15.9,11.5z M13.1,9.2v1.1h-2.2
		V9.2c0-0.6,0.5-1.1,1.1-1.1C12.6,8.1,13.1,8.6,13.1,9.2z M14.5,11.7v3.6h-5v-3.6H14.5z"/>
	<g>
		<path class="st0" d="M12,12.1c-0.5,0-0.9,0.4-0.9,0.9c0,0.4,0.3,0.7,0.6,0.8v0.9c0,0.1,0.1,0.3,0.3,0.3c0.1,0,0.3-0.1,0.3-0.3
			v-0.9c0.3-0.1,0.6-0.4,0.6-0.8C12.9,12.5,12.5,12.1,12,12.1z M12,13.3c-0.2,0-0.3-0.2-0.3-0.3c0-0.2,0.2-0.3,0.3-0.3
			c0.2,0,0.3,0.2,0.3,0.3C12.3,13.2,12.2,13.3,12,13.3z"/>
	</g>
	<path class="st0" d="M21.2,7.2l0-0.3c0,0,0,0,0,0l0-0.5c0-0.9,0-2.4,0-2.7c0-0.5-0.3-0.9-0.8-1l-8.1-2.6c-0.2-0.1-0.4-0.1-0.7,0
		L3.6,2.7c-0.5,0.1-0.8,0.6-0.8,1c0,1.3,0,2.5,0,3.5c-0.1,4-0.1,6.9,1.1,9.5c2.1,4.3,5.7,6.3,7.7,7.1C11.7,24,11.9,24,12,24
		c0.1,0,0.3,0,0.4-0.1c2-0.8,5.6-2.8,7.7-7.1C21.4,14.1,21.3,11.2,21.2,7.2z M18.1,15.8L18.1,15.8c-1.7,3.4-4.5,5.1-6.1,5.9
		c-1.6-0.7-4.4-2.5-6.1-5.9C4.8,13.6,4.9,11,5,7.3l0,0c0-0.8,0-1.8,0-2.8l7-2.2l7,2.2c0,0.5,0,1.3,0,1.9c0,0.4,0,0.7,0,0.8
		c0,0,0,0.1,0,0.1C19.1,11,19.2,13.6,18.1,15.8z"/>
</g>
</svg>
