<?xml version="1.0" encoding="utf-8"?>
<!-- Generator: Adobe Illustrator 22.0.0, SVG Export Plug-In . SVG Version: 6.00 Build 0)  -->
<svg version="1.1" id="Layer_1" xmlns="http://www.w3.org/2000/svg" xmlns:xlink="http://www.w3.org/1999/xlink" x="0px" y="0px"
	 viewBox="0 0 24 24" style="enable-background:new 0 0 24 24;" xml:space="preserve">
<style type="text/css">
	.st0{fill:url(#SVGID_1_);}
</style>
<linearGradient id="SVGID_1_" gradientUnits="userSpaceOnUse" x1="0" y1="11.9429" x2="23.8857" y2="11.9429">
	<stop  offset="0" style="stop-color:#592C7E"/>
	<stop  offset="1" style="stop-color:#EF414A"/>
</linearGradient>
<path class="st0" d="M21.2,0H2.7C1.2,0,0,1.2,0,2.7v18.6c0,1.5,1.2,2.7,2.7,2.7h18.6c1.5,0,2.7-1.2,2.7-2.7V2.7
	C23.9,1.2,22.7,0,21.2,0z M19.3,8.1c0,0.1-0.1,0.1-0.2,0.2C19.1,8.4,19,8.4,19,8.5l0,0l-9.4,9.4l-1.4-1.4C7,15.3,5.9,14.2,4.7,13
	c-0.1-0.1-0.2-0.2-0.2-0.3c-0.3-0.5-0.2-1.3,0.3-1.7c0.5-0.4,1.2-0.5,1.7-0.1c0.1,0,0.1,0.1,0.2,0.2c0.7,0.7,1.4,1.4,2.1,2l0,0
	c0.3,0.3,0.6,0.6,0.9,0.9l3.6-3.6c0,0,0,0,0,0c0.7-0.7,1.3-1.3,2-2l1.9-1.9l0,0c0.1-0.1,0.1-0.1,0.2-0.2c0.1-0.1,0.2-0.2,0.3-0.2
	c0.5-0.3,1.2-0.2,1.6,0.3C19.7,6.9,19.7,7.6,19.3,8.1z"/>
</svg>
