<?xml version="1.0" encoding="UTF-8" standalone="no"?>
<svg width="100px" height="100px" viewBox="0 0 100 100" version="1.1" xmlns="http://www.w3.org/2000/svg" xmlns:xlink="http://www.w3.org/1999/xlink">
    <!-- Generator: Sketch Beta 39 (31652) - http://www.bohemiancoding.com/sketch -->
    <title>Artboard</title>
    <desc>Created with Sketch Beta.</desc>
    <defs></defs>
    <g id="Page-1" stroke="none" stroke-width="1" fill="none" fill-rule="evenodd">
        <g id="Artboard" fill="#3B3D41">
            <g id="Group" transform="translate(12.000000, 5.000000)">
                <path d="M69.75,89.1818182 L6.34090909,89.1818182 C3.27272727,89.1818182 0.818181818,86.7272727 0.818181818,83.6590909 L0.818181818,33.9545455 C0.818181818,30.8863636 3.27272727,28.4318182 6.34090909,28.4318182 L21.4772727,28.4318182 C23.7272727,28.4318182 25.5681818,30.2727273 25.5681818,32.5227273 C25.5681818,34.7727273 23.7272727,36.6136364 21.4772727,36.6136364 L9,36.6136364 L9,80.7954545 L66.8863636,80.7954545 L66.8863636,36.8181818 L54.4090909,36.8181818 C52.1590909,36.8181818 50.3181818,34.9772727 50.3181818,32.7272727 C50.3181818,30.4772727 52.1590909,28.6363636 54.4090909,28.6363636 L69.5454545,28.6363636 C72.6136364,28.6363636 75.0681818,31.0909091 75.0681818,34.1590909 L75.0681818,83.8636364 C75.2727273,86.7272727 72.8181818,89.1818182 69.75,89.1818182 L69.75,89.1818182 Z M51.75,23.1136364 C50.5227273,23.1136364 49.5,22.7045455 48.8863636,21.8863636 L42.1363636,15.1363636 L42.1363636,60.3409091 C42.1363636,62.5909091 40.2954545,64.4318182 38.0454545,64.4318182 C35.7954545,64.4318182 33.9545455,62.5909091 33.9545455,60.3409091 L33.9545455,15.1363636 L27.2045455,21.8863636 C26.3863636,22.7045455 25.3636364,23.1136364 24.3409091,23.1136364 C22.0909091,23.1136364 20.25,21.2727273 20.25,19.0227273 C20.25,17.7954545 20.6590909,16.7727273 21.4772727,16.1590909 L35.1818182,2.45454545 C36,1.63636364 37.0227273,1.22727273 38.0454545,1.22727273 C39.2727273,1.22727273 40.2954545,1.63636364 40.9090909,2.45454545 L54.6136364,16.1590909 C55.4318182,16.9772727 55.8409091,18 55.8409091,19.0227273 C56.0454545,21.0681818 54.2045455,23.1136364 51.75,23.1136364 L51.75,23.1136364 Z" id="Shape"></path>
                <path d="M69.75,89.1818182 L6.34090909,89.1818182 C3.27272727,89.1818182 0.818181818,86.7272727 0.818181818,83.6590909 L0.818181818,33.9545455 C0.818181818,30.8863636 3.27272727,28.4318182 6.34090909,28.4318182 L21.4772727,28.4318182 C23.7272727,28.4318182 25.5681818,30.2727273 25.5681818,32.5227273 C25.5681818,34.7727273 23.7272727,36.6136364 21.4772727,36.6136364 L9,36.6136364 L9,80.7954545 L66.8863636,80.7954545 L66.8863636,36.8181818 L54.4090909,36.8181818 C52.1590909,36.8181818 50.3181818,34.9772727 50.3181818,32.7272727 C50.3181818,30.4772727 52.1590909,28.6363636 54.4090909,28.6363636 L69.5454545,28.6363636 C72.6136364,28.6363636 75.0681818,31.0909091 75.0681818,34.1590909 L75.0681818,83.8636364 C75.2727273,86.7272727 72.8181818,89.1818182 69.75,89.1818182 L69.75,89.1818182 Z M51.75,23.1136364 C50.5227273,23.1136364 49.5,22.7045455 48.8863636,21.8863636 L42.1363636,15.1363636 L42.1363636,60.3409091 C42.1363636,62.5909091 40.2954545,64.4318182 38.0454545,64.4318182 C35.7954545,64.4318182 33.9545455,62.5909091 33.9545455,60.3409091 L33.9545455,15.1363636 L27.2045455,21.8863636 C26.3863636,22.7045455 25.3636364,23.1136364 24.3409091,23.1136364 C22.0909091,23.1136364 20.25,21.2727273 20.25,19.0227273 C20.25,17.7954545 20.6590909,16.7727273 21.4772727,16.1590909 L35.1818182,2.45454545 C36,1.63636364 37.0227273,1.22727273 38.0454545,1.22727273 C39.2727273,1.22727273 40.2954545,1.63636364 40.9090909,2.45454545 L54.6136364,16.1590909 C55.4318182,16.9772727 55.8409091,18 55.8409091,19.0227273 C56.0454545,21.0681818 54.2045455,23.1136364 51.75,23.1136364 L51.75,23.1136364 Z" id="Shape"></path>
            </g>
        </g>
    </g>
</svg>