<?xml version="1.0" encoding="UTF-8" standalone="no"?>
<svg width="100px" height="100px" viewBox="0 0 100 100" version="1.1" xmlns="http://www.w3.org/2000/svg" xmlns:xlink="http://www.w3.org/1999/xlink">
    <!-- Generator: Sketch Beta 39 (31652) - http://www.bohemiancoding.com/sketch -->
    <title>Artboard</title>
    <desc>Created with Sketch Beta.</desc>
    <defs></defs>
    <g id="Page-1" stroke="none" stroke-width="1" fill="none" fill-rule="evenodd">
        <g id="Artboard" fill="#000000">
            <path d="M78.1,44 C77.201,44 76.201,44.1 75.3,44.2 C75.5,43.2 75.6,42.2 75.6,41.1 C75.6,30.6 67,22 56.5,22 C48.1,22 40.7,27.6 38.2,35.5 C36.6,35 35,34.8 33.3,34.8 C26.8,34.8 21,38.6 18.3,44.5 C11.1,46.3 6,52.9 6,60.4 C6,69.4 13.3,76.8 22.4,76.8 L44,76.8 L44,74 L22.4,74 C14.9,74 8.7,67.9 8.7,60.3 C8.7,53.9 13.3,48.3 19.5,46.9 L20.2,46.7 L20.5,46 C22.6,41 27.6,37.6 33.3,37.6 C35.1,37.6 36.9,38 38.6,38.7 L39.8,38.5 L40.5,37.7 C42.1,30.3 48.9,24.9 56.5,24.9 C65.5,24.9 72.9,32.2 72.9,41.3 C72.9,42.8 72.701,44.3 72.201,45.8 L72.701,47.2 L73.9,47.5 C75.3,47.1 76.701,46.8 78.1,46.8 C85.6,46.8 91.8,52.9 91.8,60.5 C91.8,67.4 86.6,73.2 79.8,74 L57.3,74 L57.3,76.8 L80,76.8 L81.4,76.5 C89,75 94.6,68.3 94.6,60.4 C94.5,51.4 87.1,44 78.1,44" id="Fill-1"></path>
            <path d="M47.5,42.9 L37.9,52.5 C36.7,53.7 36.7,55.7 37.9,57 C39.1,58.3 41.1,58.2 42.4,57 L47.2,52.2 L47.2,73.9 C47.2,75.6 48.6,77.1 50.4,77.1 C52.1,77.1 53.6,75.7 53.6,73.9 L53.6,53.1 L57.4,56.9 C58.6,58.1 60.6,58.1 61.9,56.9 C63.2,55.7 63.1,53.7 61.9,52.4 L52.4,42.9 C51.7,42.2 50.9,42 50,42 C49,42 48.1,42.3 47.5,42.9" id="Fill-1"></path>
        </g>
    </g>
</svg>