<?xml version="1.0" encoding="utf-8"?>
<!-- Generator: Adobe Illustrator 22.0.0, SVG Export Plug-In . SVG Version: 6.00 Build 0)  -->
<svg version="1.1" id="Layer_1" xmlns="http://www.w3.org/2000/svg" xmlns:xlink="http://www.w3.org/1999/xlink" x="0px" y="0px"
	 viewBox="0 0 24 24" style="enable-background:new 0 0 24 24;" xml:space="preserve">
<style type="text/css">
	.st0{fill:#393B40;}
</style>
<g>
	<path class="st0" d="M13.1,11.9h-2.3c-4.4,0-8,3.6-8,8V21c0,1.7,1.4,3,3,3h12.1c1.7,0,3-1.4,3-3v-1.1
		C21.1,15.4,17.5,11.9,13.1,11.9z M18.7,19.8V21c0,0.3-0.3,0.6-0.6,0.6H5.9c-0.3,0-0.6-0.3-0.6-0.6v-1.1c0-3.1,2.5-5.5,5.5-5.5h2.3
		C16.2,14.3,18.7,16.8,18.7,19.8z"/>
	<path class="st0" d="M12,11.5L12,11.5L12,11.5c3.2,0,5.8-2.6,5.8-5.8C17.8,2.6,15.2,0,12,0S6.2,2.6,6.2,5.8S8.8,11.5,12,11.5z
		 M11.9,2.4l0.1,0c1.8,0,3.3,1.5,3.3,3.3c0,1.8-1.5,3.3-3.3,3.3c-1.8,0-3.3-1.5-3.3-3.3C8.7,4,10.1,2.5,11.9,2.4z"/>
</g>
</svg>
