<?xml version="1.0" encoding="utf-8"?>
<!-- Generator: Adobe Illustrator 15.0.0, SVG Export Plug-In . SVG Version: 6.00 Build 0)  -->
<!DOCTYPE svg PUBLIC "-//W3C//DTD SVG 1.1//EN" "http://www.w3.org/Graphics/SVG/1.1/DTD/svg11.dtd">
<svg version="1.1" id="Layer_1" xmlns="http://www.w3.org/2000/svg" xmlns:xlink="http://www.w3.org/1999/xlink" x="0px" y="0px"
	 width="255.118px" height="141.732px" viewBox="0 0 255.118 141.732" enable-background="new 0 0 255.118 141.732"
	 xml:space="preserve">
<g id="background" display="none">
	<rect y="212.598" display="inline" fill="#231F20" width="255.118" height="141.731"/>
	<rect x="325.984" y="212.598" display="inline" fill="#231F20" width="141.732" height="141.731"/>
	<rect y="637.794" display="inline" fill="#231F20" width="255.118" height="141.732"/>
	<rect x="325.984" y="637.794" display="inline" fill="#231F20" width="141.732" height="141.732"/>
	<rect x="538.583" y="637.794" display="inline" fill="#231F20" width="141.732" height="141.732"/>
	<rect x="538.583" y="212.598" display="inline" fill="#231F20" width="141.732" height="141.731"/>
</g>
<g id="logos">
	<g>
		<path fill="#FFFFFF" d="M15.225,14.173v113.386h224.668V14.173H15.225z"/>
		<g>
			<polygon fill="#BA2031" points="127.559,39.982 101.879,23.788 67.64,23.788 127.559,62.304 187.481,23.788 153.241,23.788 			
				"/>
			<polygon fill="#D55052" points="127.559,83.702 127.559,62.304 187.481,23.788 			"/>
			<polygon fill="#E98A85" points="67.64,23.788 127.559,62.304 127.559,83.702 			"/>
		</g>
		<g>
			<polygon fill="#333F48" points="45.075,92.698 36.087,115.12 27.103,92.698 24.898,92.698 35.035,117.518 37.142,117.518 
				47.278,92.698 			"/>
			<path fill="#333F48" d="M57.07,92.698l-10.329,24.82h2.214l2.82-6.852h12.831l2.817,6.852h2.219l-10.333-24.82H57.07z
				 M52.437,108.899l5.754-13.936l5.753,13.936H52.437z"/>
			<path fill="#333F48" d="M92.944,100.436c0-4.566-2.897-7.74-7.876-7.74H74.861v24.822h2.11v-9.322h7.628l6.733,9.322h2.495
				l-7.052-9.531C90.731,107.389,92.944,104.514,92.944,100.436z M76.966,106.464V94.434h7.903c3.782,0,5.964,2.363,5.964,6.006
				c0,3.689-2.146,6.023-5.964,6.023H76.966L76.966,106.464z"/>
			<rect x="99.862" y="92.698" fill="#333F48" width="2.11" height="24.82"/>
			<path fill="#333F48" d="M117.528,92.698l-10.329,24.82h2.214l2.82-6.852h12.832l2.816,6.852h2.219l-10.333-24.82H117.528z
				 M112.895,108.899l5.755-13.936l5.752,13.936H112.895z"/>
			<path fill="#333F48" d="M145.07,94.065c2.365,0,4.308,0.598,5.87,1.715l1.327-1.447c-1.892-1.301-4.312-2.055-7.197-2.055
				c-7.93,0-12.462,5.471-12.462,12.814c0,7.346,4.532,12.814,12.462,12.814c2.886,0,5.306-0.756,7.197-2.053l-1.327-1.449
				c-1.562,1.115-3.505,1.715-5.87,1.715c-6.559,0-10.353-4.502-10.353-11.027C134.717,98.565,138.511,94.065,145.07,94.065z"/>
			<path fill="#333F48" d="M169.432,92.278c-7.93,0-12.463,5.471-12.463,12.814c0,7.438,4.674,12.852,12.463,12.852
				c7.988,0,12.496-5.416,12.496-12.852C181.928,97.741,177.352,92.278,169.432,92.278z M169.432,116.153
				c-6.441,0-10.354-4.457-10.354-11.061c0-6.527,3.795-11.027,10.354-11.027c6.557,0,10.389,4.498,10.389,11.027
				C179.821,111.708,176.052,116.153,169.432,116.153z"/>
			<path fill="#333F48" d="M196.024,92.698h-7.902v24.82h7.902c7.967,0,12.498-4.977,12.498-12.426
				C208.522,97.727,203.922,92.698,196.024,92.698z M196.024,115.737h-5.793V94.481h5.793c6.588,0,10.389,4.107,10.389,10.611
				C206.413,111.682,202.678,115.737,196.024,115.737z"/>
			<polygon fill="#333F48" points="230.221,94.466 230.221,92.698 214.717,92.698 214.717,117.518 230.221,117.518 230.221,115.753 
				216.827,115.753 216.827,105.606 229.104,105.606 229.104,103.839 216.827,103.839 216.827,94.466 			"/>
		</g>
	</g>
</g>
</svg>
